<svg width="170" height="64" viewBox="0 0 170 64" fill="none" xmlns="http://www.w3.org/2000/svg">
<g clip-path="url(#clip0)">
<path d="M7.34998 11.5962V48.2795L12.2459 43.307C12.6291 42.9183 13.1106 42.6447 13.6373 42.5168C13.8755 42.4597 14.1204 42.4381 14.3647 42.4525L15.2252 41.5788C12.9482 37.5045 12.2818 32.7032 13.3612 28.1484C14.4407 23.5936 17.1852 19.6262 21.0381 17.0505C23.1188 15.6346 25.4741 14.6882 27.9453 14.2751C31.2355 13.6996 34.6179 14.0546 37.7228 15.301C40.8276 16.5474 43.5352 18.6373 45.5488 21.3419C47.4295 23.8473 48.6331 26.8083 49.0404 29.9314C49.5249 33.504 48.9711 37.1425 47.4474 40.3998C45.9236 43.6572 43.4962 46.3915 40.4632 48.2667C37.6273 50.0272 34.3621 50.9442 31.0385 50.9135C27.8958 50.9192 24.8062 50.091 22.0756 48.5108L21.2089 49.3909C21.2288 49.7778 21.1687 50.1645 21.0326 50.5263C20.8964 50.8881 20.6871 51.217 20.4182 51.4917L14.7887 57.2094L49.5782 62.8951C50.2547 63.0058 50.9468 62.9659 51.6067 62.7782C52.2666 62.5905 52.8784 62.2595 53.3999 61.808C53.9215 61.3565 54.3403 60.7953 54.6273 60.1633C54.9143 59.5312 55.0627 58.8434 55.0622 58.1474V4.78621C55.0624 4.08488 54.9114 3.39209 54.6199 2.75631C54.3284 2.12053 53.9032 1.55718 53.3746 1.10598C52.846 0.654767 52.2266 0.326531 51.5598 0.144352C50.8929 -0.0378265 50.195 -0.0694528 49.5148 0.0514993L11.2718 6.89344C10.1802 7.08852 9.19027 7.66561 8.4739 8.52463C7.75753 9.38366 7.35981 10.4704 7.34998 11.5962Z" fill="#6558F5"/>
<path d="M39.6979 40.7371C41.7617 38.498 42.91 35.5457 42.91 32.4786C42.91 29.4115 41.7617 26.4591 39.6979 24.22L40.963 22.9351C43.369 25.504 44.7058 28.9171 44.6949 32.4626C44.7074 36.0103 43.3705 39.4258 40.963 41.9963L39.6979 40.7371Z" fill="#6558F5"/>
<path d="M42.5378 20.7893C41.0271 19.2543 39.2334 18.0368 37.2592 17.206C35.285 16.3753 33.169 15.9476 31.0321 15.9476C28.8951 15.9476 26.7791 16.3753 24.8049 17.206C22.8307 18.0368 21.0371 19.2543 19.5263 20.7893C16.8354 23.5215 15.1722 27.125 14.8255 30.9735C14.4788 34.8219 15.4706 38.6722 17.6287 41.855L14.8583 44.669L14.8076 44.6239C14.6501 44.4658 14.4376 44.3772 14.2161 44.3772C13.9947 44.3772 13.7822 44.4658 13.6247 44.6239L1.11947 57.325C0.399482 58.0584 -0.00476074 59.0519 -0.00476074 60.0876C-0.00476074 61.1232 0.399482 62.1166 1.11947 62.85C1.47617 63.2138 1.90023 63.5027 2.36694 63.7C2.83364 63.8974 3.33403 63.9993 3.83956 64C4.34519 64 4.84568 63.8983 5.31248 63.701C5.77929 63.5036 6.20305 63.2144 6.55933 62.85L19.0646 50.1489C19.1424 50.0701 19.2043 49.9766 19.2465 49.8735C19.2886 49.7704 19.3101 49.6599 19.3101 49.5483C19.3101 49.4367 19.2886 49.3261 19.2465 49.2231C19.2043 49.12 19.1424 49.0263 19.0646 48.9476L19.0204 48.9026L21.797 46.0823C24.9293 48.2749 28.7194 49.2828 32.5078 48.9307C36.2961 48.5786 39.8432 46.8886 42.5316 44.155C45.5828 41.0571 47.2976 36.8553 47.2988 32.4736C47.3 28.0918 45.5873 23.8888 42.5378 20.7893ZM16.4269 51.0612L8.48875 59.1239C8.38098 59.2322 8.23543 59.2929 8.08384 59.2929C7.93225 59.2929 7.78669 59.2322 7.67893 59.1239C7.57232 59.0144 7.51246 58.8667 7.51246 58.7127C7.51246 58.5588 7.57232 58.411 7.67893 58.3015L15.6174 50.2389C15.7252 50.1306 15.8704 50.0699 16.022 50.0699C16.1736 50.0699 16.3192 50.1306 16.4269 50.2389C16.4799 50.2928 16.5219 50.357 16.5502 50.4276C16.5784 50.4983 16.5922 50.5738 16.5912 50.6501C16.5926 50.7263 16.5787 50.802 16.5505 50.8727C16.5222 50.9434 16.4802 51.0075 16.4269 51.0612ZM41.6588 43.2748C39.2038 45.7763 35.9705 47.3356 32.5102 47.687C29.05 48.0384 25.5769 47.1603 22.6828 45.2022C21.858 44.639 21.0909 43.9934 20.3929 43.2748C19.6907 42.5634 19.0554 41.787 18.4953 40.9556C16.5698 38.0153 15.7066 34.4884 16.0526 30.9746C16.3986 27.4608 17.9322 24.1772 20.3929 21.6824C23.2114 18.8201 27.0337 17.2121 31.0194 17.2121C35.0051 17.2121 38.8277 18.8201 41.6462 21.6824C44.4664 24.5444 46.0521 28.4268 46.0544 32.4759C46.0568 36.5251 44.4757 40.4095 41.6588 43.2748Z" fill="#293845"/>
<path d="M69.0789 27.2523L68.3136 29.3853H64.3287L70.1544 14.6477H73.0767L78.877 29.3788H74.8542L74.1519 27.2459L69.0789 27.2523ZM70.0975 24.265H73.14L71.647 19.2282H71.5902L70.0975 24.265Z" fill="#293845"/>
<path d="M91.1987 25.1836C90.9001 26.4871 90.1741 27.6488 89.1395 28.4777C88.105 29.3066 86.8235 29.7536 85.5059 29.745C84.7385 29.7536 83.9773 29.6064 83.2667 29.3121C82.556 29.0178 81.9102 28.5823 81.3675 28.0311C80.8249 27.48 80.3962 26.8243 80.1065 26.1026C79.8167 25.3808 79.6718 24.6075 79.6802 23.8281C79.6675 23.0564 79.8071 22.2899 80.0907 21.5738C80.3743 20.8577 80.7961 20.2066 81.3314 19.6587C81.8667 19.1108 82.5045 18.6774 83.2074 18.3839C83.9102 18.0903 84.6638 17.9427 85.4237 17.9497C86.7677 17.9189 88.0799 18.3664 89.1334 19.2147C90.1868 20.0629 90.9154 21.2584 91.1925 22.5945H87.8967C87.7096 22.121 87.3835 21.7176 86.9624 21.4394C86.5413 21.1611 86.0459 21.0217 85.5438 21.0399C83.9941 20.9628 82.9504 22.254 82.9504 23.8473C82.9241 24.2081 82.9718 24.5706 83.0906 24.9118C83.2094 25.2529 83.3966 25.5654 83.6404 25.8293C83.8841 26.0932 84.1791 26.3027 84.5067 26.4448C84.8344 26.5869 85.1876 26.6585 85.5438 26.6548C86.0343 26.6677 86.5178 26.5355 86.9355 26.2743C87.3533 26.0131 87.6871 25.6341 87.8967 25.1836H91.1987Z" fill="#293845"/>
<path d="M92.9763 14.6477H96.2337V19.3438H96.2717C96.5724 18.8756 96.9923 18.4989 97.4868 18.2534C97.9812 18.008 98.5317 17.9031 99.0802 17.9498C99.6294 17.9332 100.176 18.0325 100.686 18.2415C101.195 18.4505 101.657 18.7647 102.041 19.1641C102.964 20.2627 103.059 21.239 103.059 23.2113V29.3853H99.8013V23.372C99.8013 22.8323 99.8013 21.0593 98.0619 21.0593C96.3224 21.0593 96.2337 22.7103 96.2337 23.2499V29.3853H92.9763V14.6477Z" fill="#293845"/>
<path d="M116.829 29.3789H113.578V28.1839H113.534C112.99 29.2567 111.636 29.758 110.371 29.758C106.917 29.758 104.9 27.0082 104.9 23.841C104.9 20.2176 107.468 17.9434 110.371 17.9434C110.986 17.9007 111.601 18.0218 112.156 18.2944C112.71 18.5671 113.185 18.982 113.534 19.4982H113.578V18.3225H116.829V29.3789ZM110.852 26.6678C111.216 26.6732 111.578 26.6033 111.915 26.4625C112.252 26.3216 112.557 26.1126 112.812 25.8483C113.067 25.5839 113.266 25.2697 113.398 24.9246C113.529 24.5795 113.591 24.2108 113.578 23.841C113.59 23.4706 113.527 23.1016 113.394 22.7567C113.261 22.4117 113.059 22.0982 112.802 21.8352C112.545 21.5723 112.238 21.3654 111.899 21.2276C111.56 21.0897 111.197 21.0237 110.833 21.0336C110.47 21.0332 110.111 21.1075 109.777 21.2519C109.443 21.3963 109.142 21.6077 108.89 21.8736C108.639 22.1395 108.444 22.4545 108.316 22.7992C108.187 23.1439 108.129 23.5114 108.144 23.8795C108.139 24.242 108.205 24.602 108.337 24.9387C108.469 25.2755 108.665 25.5824 108.914 25.842C109.164 26.1016 109.461 26.3087 109.789 26.4515C110.117 26.5943 110.469 26.67 110.826 26.6742L110.852 26.6678Z" fill="#293845"/>
<path d="M130.511 29.3788H127.411V28.1838H127.373C127.101 28.64 126.317 29.7386 124.116 29.7386C120.82 29.7386 118.663 27.1689 118.663 23.8218C118.663 20.0763 121.295 17.9433 124.059 17.9433C124.648 17.9221 125.235 18.0287 125.78 18.2558C126.325 18.4829 126.817 18.8253 127.222 19.2604V14.6413H130.479L130.511 29.3788ZM124.647 26.6485C125.017 26.6583 125.385 26.5913 125.728 26.4515C126.071 26.3117 126.383 26.1021 126.644 25.8355C126.904 25.569 127.108 25.2511 127.244 24.9015C127.379 24.5519 127.442 24.1779 127.43 23.8025C127.439 23.4348 127.374 23.0692 127.239 22.7279C127.104 22.3867 126.901 22.0769 126.645 21.8178C126.388 21.5586 126.081 21.3553 125.745 21.2205C125.408 21.0856 125.047 21.0221 124.685 21.0335C124.322 21.0203 123.96 21.0826 123.621 21.2166C123.282 21.3505 122.974 21.5533 122.715 21.8126C122.456 22.0718 122.253 22.3822 122.116 22.7243C121.98 23.0665 121.913 23.4334 121.921 23.8025C121.901 24.1754 121.957 24.5484 122.086 24.8982C122.214 25.248 122.413 25.5669 122.669 25.8349C122.925 26.1029 123.233 26.3141 123.574 26.4552C123.914 26.5963 124.28 26.6643 124.647 26.6549V26.6485Z" fill="#293845"/>
<path d="M138.215 17.969C138.985 17.9454 139.752 18.0809 140.468 18.3669C141.185 18.653 141.838 19.0838 142.386 19.6333C142.934 20.1829 143.367 20.8398 143.658 21.5641C143.949 22.2884 144.092 23.0651 144.079 23.8473C144.092 24.6295 143.949 25.4063 143.658 26.1307C143.367 26.855 142.934 27.5119 142.386 28.0614C141.838 28.611 141.185 29.0417 140.468 29.3278C139.752 29.6139 138.985 29.7493 138.215 29.7257C137.445 29.7493 136.679 29.6139 135.962 29.3278C135.245 29.0417 134.592 28.611 134.044 28.0614C133.496 27.5119 133.063 26.855 132.772 26.1307C132.481 25.4063 132.338 24.6295 132.351 23.8473C132.338 23.0651 132.481 22.2884 132.772 21.5641C133.063 20.8398 133.496 20.1829 134.044 19.6333C134.592 19.0838 135.245 18.653 135.962 18.3669C136.679 18.0809 137.445 17.9454 138.215 17.969ZM138.215 26.6356C138.568 26.6298 138.916 26.5528 139.239 26.4089C139.562 26.2651 139.853 26.0572 140.097 25.7977C140.34 25.5381 140.53 25.2321 140.655 24.8972C140.781 24.5624 140.839 24.2054 140.827 23.8473C140.839 23.4892 140.781 23.1324 140.655 22.7975C140.53 22.4627 140.34 22.1566 140.097 21.8971C139.853 21.6375 139.562 21.4297 139.239 21.2858C138.916 21.142 138.568 21.065 138.215 21.0592C137.863 21.065 137.515 21.1421 137.192 21.286C136.869 21.4299 136.578 21.6378 136.335 21.8974C136.093 22.157 135.904 22.4632 135.779 22.798C135.654 23.1328 135.596 23.4895 135.609 23.8473C135.596 24.2051 135.654 24.5619 135.779 24.8968C135.904 25.2316 136.093 25.5377 136.335 25.7974C136.578 26.057 136.869 26.2648 137.192 26.4088C137.515 26.5527 137.863 26.6298 138.215 26.6356Z" fill="#293845"/>
<path d="M150.55 21.4382C150.55 21.2005 150.493 20.6031 149.531 20.6031C148.842 20.6031 148.608 21.0399 148.608 21.3354C148.608 21.9329 149.411 22.2735 150.277 22.5305C152.118 23.0508 154.073 23.6097 154.073 25.9996C154.073 28.3895 152.055 29.7644 149.645 29.7644C148 29.7644 145.508 29.0061 145.217 26.0959H148.456C148.495 26.3994 148.65 26.6755 148.885 26.866C149.121 27.0565 149.421 27.1467 149.721 27.1174C150.265 27.1174 150.853 26.7961 150.853 26.2565C150.853 25.402 150.05 25.2992 147.975 24.4833C146.558 24.0272 145.382 23.0893 145.382 21.5988C145.382 19.4081 147.343 17.9498 149.601 17.9498C151.03 17.9498 153.504 18.5279 153.776 21.4382H150.55Z" fill="#293845"/>
<path d="M75.8218 43.9109C75.3651 45.0488 74.5968 46.0298 73.6079 46.7376C72.7027 47.3907 71.6188 47.7389 70.5085 47.7334C68.9791 47.7317 67.5128 47.1138 66.4313 46.0154C65.3498 44.917 64.7414 43.4277 64.7397 41.8743C64.7262 40.3223 65.3169 38.8278 66.3831 37.716C67.4494 36.6042 68.9047 35.9652 70.4325 35.9381C71.2044 35.9368 71.9687 36.0937 72.6795 36.3993C73.3902 36.7049 74.0328 37.153 74.569 37.7168C75.1053 38.2806 75.524 38.9486 75.8001 39.6807C76.0762 40.4127 76.2041 41.1938 76.176 41.9772C76.178 42.2702 76.1525 42.5627 76.1 42.8508H67.9404C68.0334 43.4555 68.3431 44.0039 68.8101 44.3905C69.2772 44.7771 69.8687 44.9747 70.4705 44.9452C70.8593 44.9545 71.2443 44.8647 71.5901 44.684C71.936 44.5034 72.2316 44.2375 72.4503 43.9109H75.8218ZM72.9438 40.6216C72.8167 40.0608 72.4989 39.5634 72.0466 39.2169C71.5943 38.8703 71.0364 38.6966 70.4705 38.7264C69.9047 38.6966 69.3467 38.8703 68.8944 39.2169C68.4422 39.5634 68.1244 40.0608 67.9972 40.6216H72.9438Z" fill="#293845"/>
<path d="M84.1968 32.636H88.9408C91.6291 32.636 92.6284 33.0536 93.4127 33.7089C93.9633 34.1918 94.402 34.7925 94.6972 35.4677C94.9925 36.143 95.1371 36.8763 95.1207 37.615C95.1337 38.329 95.0047 39.0383 94.7417 39.7005C94.4787 40.3628 94.0868 40.9646 93.5897 41.4696C92.5903 42.3305 91.61 42.7544 89.3519 42.7544H87.7325V47.3736H84.1841L84.1968 32.636ZM87.7452 39.4458H89.2571C89.9592 39.4458 91.5657 39.4458 91.5657 37.6727C91.5657 35.8995 89.9211 35.9381 89.1178 35.9381H87.7325L87.7452 39.4458Z" fill="#293845"/>
<path d="M106.626 43.9109C106.17 45.0488 105.401 46.0298 104.412 46.7376C103.507 47.3907 102.423 47.7389 101.313 47.7334C99.7848 47.73 98.32 47.1114 97.2399 46.0132C96.1598 44.9149 95.5522 43.4266 95.5505 41.8743C95.5369 40.3223 96.1277 38.8278 97.1939 37.716C98.2601 36.6042 99.7154 35.9652 101.243 35.9381C102.015 35.9368 102.779 36.0937 103.49 36.3993C104.201 36.7049 104.844 37.153 105.38 37.7168C105.916 38.2806 106.335 38.9486 106.611 39.6807C106.887 40.4127 107.015 41.1938 106.987 41.9772C106.989 42.2702 106.963 42.5627 106.911 42.8508H98.7512C98.8441 43.4555 99.1541 44.0039 99.6212 44.3905C100.088 44.7771 100.679 44.9747 101.281 44.9452C101.67 44.9545 102.055 44.8647 102.401 44.684C102.747 44.5034 103.042 44.2375 103.261 43.9109H106.626ZM103.748 40.6216C103.621 40.0608 103.304 39.5634 102.851 39.2169C102.399 38.8703 101.841 38.6966 101.275 38.7264C100.709 38.6966 100.151 38.8703 99.6987 39.2169C99.2464 39.5634 98.9289 40.0608 98.8018 40.6216H103.748Z" fill="#293845"/>
<path d="M108.783 36.3172H111.845V37.4928H111.883C112.155 36.9531 112.724 35.9381 114.609 35.9381V39.2659C113.097 39.3045 112.041 39.6258 112.041 41.2962V47.3736H108.783V36.3172Z" fill="#293845"/>
<path d="M127.139 47.3672H124.04V46.1723H124.002C123.724 46.6284 122.939 47.727 120.744 47.727C117.449 47.727 115.292 45.1573 115.292 41.8101C115.292 38.0647 117.923 35.9317 120.688 35.9317C121.277 35.9113 121.863 36.0182 122.408 36.2453C122.953 36.4723 123.445 36.8144 123.85 37.2488V32.6296H127.108L127.139 47.3672ZM121.276 44.6368C121.645 44.6467 122.013 44.5796 122.357 44.4398C122.7 44.3 123.012 44.0904 123.272 43.8239C123.533 43.5574 123.737 43.2395 123.872 42.8899C124.008 42.5403 124.071 42.1663 124.059 41.7909C124.067 41.4234 124.001 41.0581 123.866 40.7172C123.73 40.3764 123.528 40.0671 123.271 39.8082C123.014 39.5492 122.709 39.3459 122.372 39.2107C122.036 39.0756 121.675 39.0114 121.314 39.0219C120.95 39.0087 120.588 39.071 120.25 39.2049C119.911 39.3389 119.603 39.5417 119.344 39.801C119.085 40.0602 118.881 40.3705 118.745 40.7127C118.608 41.0549 118.542 41.4217 118.55 41.7909C118.53 42.1621 118.585 42.5335 118.713 42.882C118.84 43.2304 119.037 43.5485 119.291 43.8161C119.545 44.0838 119.851 44.2954 120.189 44.4377C120.527 44.58 120.891 44.65 121.257 44.6433L121.276 44.6368Z" fill="#293845"/>
<path d="M132.744 35.1608H129.48V32.6553H132.731L132.744 35.1608ZM132.744 47.3672H129.48V36.3108H132.731L132.744 47.3672Z" fill="#293845"/>
<path d="M146.432 47.3672H143.332V46.1723H143.294C143.022 46.6284 142.238 47.727 140.043 47.727C136.748 47.727 134.591 45.1573 134.591 41.8101C134.591 38.0647 137.216 35.9317 139.98 35.9317C140.575 35.9071 141.168 36.0118 141.72 36.239C142.272 36.4661 142.77 36.8104 143.181 37.2488V32.6296H146.432V47.3672ZM140.568 44.6368C140.938 44.6476 141.307 44.5812 141.651 44.4418C141.995 44.3024 142.307 44.093 142.569 43.8263C142.83 43.5597 143.035 43.2415 143.17 42.8914C143.306 42.5414 143.37 42.1669 143.358 41.7909C143.365 41.4229 143.299 41.0571 143.164 40.7158C143.028 40.3746 142.825 40.0649 142.568 39.8058C142.31 39.5467 142.004 39.3436 141.666 39.2089C141.329 39.0741 140.968 39.0105 140.606 39.0219C140.243 39.0087 139.881 39.071 139.542 39.2049C139.203 39.3389 138.895 39.5417 138.636 39.801C138.377 40.0602 138.174 40.3705 138.037 40.7127C137.9 41.0549 137.834 41.4217 137.842 41.7909C137.822 42.1637 137.878 42.5368 138.007 42.8866C138.135 43.2364 138.334 43.5554 138.59 43.8233C138.846 44.0913 139.154 44.3025 139.495 44.4436C139.835 44.5847 140.2 44.6527 140.568 44.6433V44.6368Z" fill="#293845"/>
<path d="M154.149 35.9574C154.918 35.9338 155.685 36.0692 156.402 36.3553C157.119 36.6414 157.771 37.0721 158.319 37.6217C158.868 38.1713 159.3 38.8281 159.591 39.5525C159.882 40.2768 160.025 41.0535 160.012 41.8357C160.025 42.6179 159.882 43.3947 159.591 44.119C159.3 44.8434 158.868 45.5002 158.319 46.0497C157.771 46.5993 157.119 47.0302 156.402 47.3163C155.685 47.6023 154.918 47.7377 154.149 47.7141C153.379 47.7377 152.612 47.6023 151.895 47.3163C151.178 47.0302 150.526 46.5993 149.978 46.0497C149.43 45.5002 148.997 44.8434 148.706 44.119C148.415 43.3947 148.272 42.6179 148.285 41.8357C148.272 41.0535 148.415 40.2768 148.706 39.5525C148.997 38.8281 149.43 38.1713 149.978 37.6217C150.526 37.0721 151.178 36.6414 151.895 36.3553C152.612 36.0692 153.379 35.9338 154.149 35.9574ZM154.149 44.6239C154.502 44.619 154.85 44.5426 155.173 44.399C155.497 44.2555 155.789 44.0477 156.032 43.788C156.276 43.5283 156.466 43.2218 156.591 42.8865C156.716 42.5513 156.774 42.194 156.761 41.8357C156.774 41.4774 156.716 41.1202 156.591 40.785C156.466 40.4497 156.276 40.1431 156.032 39.8834C155.789 39.6237 155.497 39.416 155.173 39.2725C154.85 39.1289 154.502 39.0525 154.149 39.0476C153.796 39.0533 153.448 39.1305 153.126 39.2744C152.803 39.4183 152.512 39.6261 152.269 39.8858C152.026 40.1454 151.837 40.4515 151.712 40.7864C151.588 41.1212 151.53 41.4779 151.542 41.8357C151.53 42.1934 151.588 42.5502 151.712 42.8851C151.837 43.2199 152.026 43.5261 152.269 43.7857C152.512 44.0454 152.803 44.2533 153.126 44.3972C153.448 44.5411 153.796 44.6182 154.149 44.6239Z" fill="#293845"/>
<path d="M166.47 39.4266C166.47 39.1888 166.414 38.5915 165.452 38.5915C164.769 38.5915 164.529 39.0283 164.529 39.3238C164.529 39.9213 165.332 40.2619 166.198 40.5188C168.039 41.0392 169.994 41.5981 169.994 43.9879C169.994 46.3778 167.976 47.7526 165.566 47.7526C163.915 47.7526 161.423 46.9946 161.138 44.0843H164.377C164.413 44.3831 164.562 44.6561 164.792 44.8464C165.022 45.0366 165.315 45.1296 165.61 45.1058C166.161 45.1058 166.749 44.7846 166.749 44.2449C166.749 43.3905 165.945 43.2877 163.864 42.4718C162.454 42.0157 161.277 41.0776 161.277 39.5872C161.277 37.3964 163.238 35.9381 165.49 35.9381C166.926 35.9381 169.393 36.5163 169.671 39.4266H166.47Z" fill="#293845"/>
</g>
<defs>
<clipPath id="clip0">
<rect width="170" height="64" fill="white"/>
</clipPath>
</defs>
</svg>
